<?xml version="1.0" encoding="utf-8"?>
<!-- Generator: Adobe Illustrator 19.2.1, SVG Export Plug-In . SVG Version: 6.00 Build 0)  -->
<svg version="1.0" id="Layer_1" xmlns="http://www.w3.org/2000/svg" xmlns:xlink="http://www.w3.org/1999/xlink" x="0px" y="0px"
	 width="1141.9px" height="486.8px" viewBox="0 0 1141.9 486.8" enable-background="new 0 0 1141.9 486.8" xml:space="preserve">
<g>
	<g>
		<path fill="#878787" d="M1003.5,284.4c70.8-37.9,115.3-92.6,99.4-122.3c-15.9-29.7-86.1-23-156.9,14.9
			c-70.8,37.9-115.3,92.6-99.4,122.3c2.6,4.9,4.2,9.1,9.5,12c-2,1.6-1.8,2.4-3.4,4.7c-11.1-4.3-19.6-10.7-24.5-19.7
			c-20.6-38.6,31.8-106.9,117.2-152.6c85.4-45.7,171.3-51.5,192-13c20.6,38.6-31.9,106.9-117.2,152.6c-15.2,8.1-29,14.5-43.9,20
			c-0.1-1.9-0.8-3.8-1.1-5.5C984.8,293.8,993.8,289.6,1003.5,284.4z"/>
	</g>
</g>
<g>
	<g>
		<path fill="#878787" d="M744.3,206.6C706,136,699,65.8,728.6,49.8c29.6-16,84.6,28.2,122.8,98.8c38.2,70.5,45.2,140.8,15.7,156.8
			c-4.9,2.6-10.5,3.4-16.6,3c0.8,2.4,1.4,5,2.2,7.5c11.6,2.6,22.4,1.9,31.4-3c38.5-20.8,32.2-106.8-13.9-191.9
			C824.1,35.9,755.5-16.3,717,4.6c-38.4,20.9-32.2,106.8,13.9,191.9c8.2,15.2,17.2,29.2,26.5,42.1c1.1-1.6,2.2-3.3,3.4-4.7
			C755,225.4,749.5,216.3,744.3,206.6z"/>
	</g>
</g>
<g>
	<path fill="#1B2B59" d="M0,297.5h30.8c18.4,0,32.1,1.6,43.2,10.6c11.1,9,17.4,24.4,17.4,42.7c0,34.3-20,52.8-58.7,52.8
		c-2.4,0-5,0-7.4-0.3v83.4H0V297.5z M34.7,380.6c22.1,0,31.3-8.2,31.3-30.8c0-22-10.3-30-33.2-30h-7.6v60.8H34.7z"/>
	<path fill="#1B2B59" d="M124.7,359.6l13.2,66.4c1.3,6.9,2.6,16.5,3.7,29.2c1.6-14.3,2.9-23.9,3.9-28.9l12.9-66.6h23.9l-31.6,127.2
		h-18.4l-31.6-127.2H124.7z"/>
	<path fill="#1B2B59" d="M229.5,489.5c-25.8,0-37.1-21.5-37.1-66.1c0-43.8,12.6-66.1,35.8-66.1c7.1,0,13.7,1.6,20.3,5v22.3
		c-4.2-4-8.2-5.8-12.6-5.8c-13.4,0-20,15.1-20,45.7c0,28.1,6.3,42,19.5,42c4.7,0,8.9-1.9,13.2-5.6v23.9
		C242.1,487.9,236.1,489.5,229.5,489.5z"/>
	<path fill="#1B2B59" d="M261.6,412.7H314v21h-52.4V412.7z"/>
	<path fill="#1B2B59" d="M338.2,285.8h23.2v86.6c5.3-9.3,14.2-14.1,26.3-14.1c18.7,0,27.4,10.4,27.4,31.6v96.9h-23.2v-85.5
		c0-15.1-2.6-22.3-15-22.3c-10.3,0-15.5,6.6-15.5,19.4v88.4h-23.2V285.8z"/>
	<path fill="#1B2B59" d="M495.3,474.3c-6.3,10.1-14.2,14.9-25,14.9c-21.1,0-32.4-22.3-32.4-66.1s11.3-65.8,32.4-65.8
		c10.8,0,18.7,4.5,25,14.6v-12.2h23.2v127.2h-23.2V474.3z M478.7,467.4c13.4,0,17.4-14.9,17.4-44.3c0-29.7-3.7-44.1-17.4-44.1
		s-17.4,14.3-17.4,44.1C461.3,452.8,465.3,467.4,478.7,467.4z"/>
	<path fill="#1B2B59" d="M546.1,359.6H569v12.7c6.1-9.3,14.7-14.1,26.6-14.1c18.7,0,27.4,10.4,27.4,31.6v96.9h-23.2v-85.5
		c0-15.1-2.6-22.3-15-22.3c-10.3,0-15.5,6.6-15.5,19.4v88.4h-23.2V359.6z"/>
	<path fill="#1B2B59" d="M703.2,474.3c-6.3,10.1-14.2,14.9-25,14.9c-22.6,0-32.4-21.8-32.4-65.8s9.7-65.8,32.4-65.8
		c10.8,0,18.7,4.5,25,14.6v-86.3h23.2v201h-23.2V474.3z M686.6,467.4c13.7,0,17.4-14.6,17.4-44.1s-3.7-44.1-17.4-44.1
		s-17.4,14.3-17.4,44.1S672.9,467.4,686.6,467.4z"/>
	<path fill="#1B2B59" d="M825.5,445.9c0,27.1-14.5,43.3-37.4,43.3c-28.9,0-40.8-21.2-40.8-66.6c0-43.8,12.9-65.3,39.5-65.3
		c28.9,0,40,19.4,40,62.9v7.4h-57.6v3.7c0,25.8,5.3,38,18.7,38c10.5,0,15.8-8.2,16.3-25h21.3V445.9z M804.5,409.3v-3.2
		c0-20.2-4.7-29.7-17.4-29.7c-11.6,0-17.9,11.2-17.9,32.9H804.5z"/>
	<path fill="#1B2B59" d="M849.5,285.8h23.2v201h-23.2V285.8z"/>
	<path fill="#1B2B59" d="M912.6,460c8.2,0,14.7,6.6,14.7,14.9s-6.6,14.6-14.7,14.6c-8.2,0-14.5-6.4-14.5-14.6S904.5,460,912.6,460z"
		/>
	<path fill="#1B2B59" d="M952.6,359.6h22.9v12.7c6.1-9.3,14.7-14.1,26.6-14.1c18.7,0,27.4,10.4,27.4,31.6v96.9h-23.2v-85.5
		c0-15.1-2.6-22.3-15-22.3c-10.3,0-15.5,6.6-15.5,19.4v88.4h-23.2V359.6z"/>
	<path fill="#1B2B59" d="M1057.9,285.8h23.2v201h-23.2V285.8z"/>
</g>
</svg>
