<svg xmlns="http://www.w3.org/2000/svg" viewBox="0 0 820 550.01"><defs><style>.cls-1{fill:#9d5356;}.cls-2{fill:#e7ba6b;}.cls-3{fill:#fff;}</style></defs><g id="Layer_2" data-name="Layer 2"><g id="Layer_3" data-name="Layer 3"><g id="Layer_2-2" data-name="Layer 2"><g id="Layer_1-2" data-name="Layer 1-2"><path class="cls-1" d="M715,550A410,410,0,0,0,713.19,0H106.81A410,410,0,0,0,105,550Z"/></g></g></g><g id="Layer_4" data-name="Layer 4"><polygon class="cls-2" points="177.4 238.39 195.82 238.39 195.82 177.57 216.29 177.57 216.29 174.99 157 174.99 157 177.57 177.4 177.57 177.4 238.39"/><polygon class="cls-2" points="215.04 303.52 195.82 303.52 195.82 242.63 177.4 242.63 177.4 303.52 157 303.52 157 306.11 215.04 306.11 215.04 303.52"/><path class="cls-2" d="M267.44,265.76C262,289,250.15,303.52,228.62,303.52h-5.17v2.59h46.38V265.76Z"/><path class="cls-2" d="M409,378.33a19.71,19.71,0,1,0-.34,0H409"/><rect class="cls-3" x="157" y="323.2" width="504.01" height="4.24"/><path class="cls-2" d="M618.07,174.32c26.5,1.06,34,19.28,38.3,37.51h2V175h-2.71a9,9,0,0,1-8.15,3.84c-7.22,0-14.64-6.63-29.42-7.16Z"/><path class="cls-2" d="M609.59,174.59v-2.45a68,68,0,0,0-57.91,66.25h21.07c0-25.9,4.37-60,36.84-63.8"/><path class="cls-2" d="M609.59,305.91c-21.8-2.12-36.44-17.16-36.77-63.28H551.68a68.84,68.84,0,0,0,21.07,48.17,60,60,0,0,0,36.84,17.69Z"/><path class="cls-2" d="M659,266.88c-4.84,18.29-10.34,38.23-40.88,39.29v2.32c15.64-.53,25.11-6.62,32-6.62a9.54,9.54,0,0,1,8.15,3.91h2.52v-38.9Z"/><path class="cls-2" d="M480.66,306.24c-19-.4-29.22-10.87-29.22-39.75V242.63H433v22c0,29.88,16.16,44.19,45.45,44.19h2.19Z"/><path class="cls-2" d="M521.6,263.17c0,17.69-3,22.86-7.75,29.29a34,34,0,0,1-24.51,13.25V308a37.64,37.64,0,0,0,26.5-14,41.12,41.12,0,0,0,8.41-27.23V242.63H521.6Z"/><polygon class="cls-2" points="521.4 238.39 524.12 238.39 524.12 177.57 544.59 177.57 544.59 174.99 500.93 174.99 500.93 177.57 521.4 177.57 521.4 238.39"/><polygon class="cls-2" points="433.02 238.39 451.44 238.39 451.44 177.57 471.84 177.57 471.84 174.99 412.55 174.99 412.55 177.57 433.02 177.57 433.02 238.39"/><path class="cls-2" d="M339.07,174.46v-2.59a69.7,69.7,0,0,0-59.63,66.26h21.07c0-31.8,7.15-61.55,38.82-63.94"/><path class="cls-2" d="M347.48,174.46c31.41,2.51,38.3,32.2,38.56,63.93h21.07a68,68,0,0,0-59.63-66.25Z"/><path class="cls-2" d="M339.07,306.11c-28-1.86-38.43-22.79-38.83-63.54H279.17c1.06,33.13,25.78,63.74,59.63,66.25Z"/><path class="cls-2" d="M386,242.63c-.4,40.55-10.73,61.49-38.56,63.48v2.38c33.13-2.58,58.51-33.79,59.63-66.25Z"/></g></g></svg>