<?xml version="1.0" encoding="UTF-8"?>
<svg id="Layer_1" data-name="Layer 1" xmlns="http://www.w3.org/2000/svg" viewBox="0 0 119.49 152.08">
  <defs>
    <style>
      .cls-1, .cls-2 {
        fill: #f48921;
      }

      .cls-3 {
        fill: none;
        stroke: #f48921;
        stroke-miterlimit: 10;
        stroke-width: 4.16px;
      }

      .cls-2 {
        opacity: .2;
      }
    </style>
  </defs>
  <polygon class="cls-2" points="65.25 79.88 49.29 93.18 65.25 141.39 80.87 93.18 65.25 79.88"/>
  <path class="cls-1" d="m59.93,67.99c-18.75,0-34-15.25-34-34S41.19,0,59.93,0s34,15.25,34,34-15.25,34-34,34Zm0-63.84c-16.45,0-29.84,13.39-29.84,29.84s13.39,29.84,29.84,29.84,29.84-13.39,29.84-29.84-13.39-29.84-29.84-29.84Z"/>
  <path class="cls-1" d="m60.07,142.87l-18.4-55.58,18.39-15.33,18.02,15.33-18.01,55.57Zm-13.56-54.2l13.52,40.85,13.24-40.85-13.24-11.26-13.53,11.27Z"/>
  <path class="cls-3" d="m2.08,86.71v63.29h51.95l-26.65-74.04c-.84-2.33-3.05-3.89-5.53-3.89h-5.13c-8.08,0-14.63,6.55-14.63,14.63Z"/>
  <path class="cls-3" d="m117.41,86.82v63.18h-51.95l26.63-73.97c.85-2.37,3.11-3.96,5.63-3.96h4.95c8.14,0,14.75,6.6,14.75,14.75Z"/>
</svg>